<svg width="134" height="73" viewBox="0 0 134 73" fill="none" xmlns="http://www.w3.org/2000/svg">
<mask id="mask0_178_12090" style="mask-type:luminance" maskUnits="userSpaceOnUse" x="50" y="0" width="34" height="34">
<path d="M83.471 0C74.3205 1.13824 64.9914 4.15123 64.4111 13.1902C64.1433 17.4084 65.4824 20.5776 66.9777 23.6352C63.2505 20.042 57.8494 17.1629 50.3281 17.8994C54.9257 19.1492 60.3491 21.6043 63.2728 24.8404C63.8977 25.5323 64.7905 26.7152 64.5896 27.7418C64.2548 29.4604 61.041 29.1256 59.1216 29.2149C63.1389 30.7772 67.6249 33.6339 73.3385 33.4107C76.1952 33.2991 78.2931 31.5806 78.0476 28.3891C77.6236 22.6532 73.3385 17.7878 72.8474 11.3155C72.3118 4.01732 77.4674 1.31679 83.2925 0.0669527C83.4041 0.11159 83.5826 0.0669533 83.6496 0.0223164C83.6719 0.0223164 83.6496 0 83.471 0Z" fill="white"/>
</mask>
<g mask="url(#mask0_178_12090)">
<path d="M100.5 16.6271L66.8439 -16.672L33.5225 16.9842L67.1787 50.2834L100.5 16.6271Z" fill="url(#paint0_linear_178_12090)"/>
</g>
<path d="M18.3235 38.0085C18.3235 37.9639 18.2788 37.8969 18.2565 37.8746C18.2119 37.83 18.1672 37.8077 18.1003 37.8077C16.6049 37.8746 15.0873 37.8523 13.6143 37.7853C13.5473 37.7853 13.4804 37.8523 13.458 37.8523C13.4134 37.8969 13.3911 37.9639 13.4134 38.0308C13.4357 38.0978 13.4804 38.1424 13.5473 38.1648C14.0383 38.2763 14.2615 38.5218 14.2615 38.9459C14.2615 39.2137 14.1722 39.5708 13.9937 39.9725C12.0966 44.1684 10.6236 47.4492 9.48535 49.9935L4.99933 39.9279C4.82079 39.5262 4.73151 39.1691 4.73151 38.9013C4.73151 38.4549 4.9547 38.2317 5.4457 38.1201C5.51266 38.0978 5.5573 38.0532 5.57961 37.9862C5.60193 37.9192 5.5573 37.83 5.51266 37.7853C5.46802 37.7407 5.42339 37.7407 5.37875 37.7407C3.70486 37.8077 1.94171 37.8077 0.200866 37.7184C0.133911 37.7184 0.0892737 37.7407 0.0669552 37.7853C0.0223183 37.83 0 37.8969 0 37.9192C0 38.0085 0.0669551 38.0978 0.156229 38.0978C1.02665 38.254 1.74084 38.9236 2.2988 40.0618C5.11093 45.8423 7.34277 50.6184 8.90507 54.2787C8.92738 54.3456 8.99434 54.3903 9.06129 54.3903H9.08361C9.15057 54.3903 9.21752 54.3456 9.26216 54.2787C10.936 50.5069 13.1902 45.7307 16.0023 40.1288C16.5603 38.9905 17.2968 38.321 18.1672 38.1871C18.2788 38.1871 18.3235 38.1201 18.3235 38.0085Z" fill="white"/>
<path d="M18.6584 40.1064C18.9709 40.4188 19.328 40.5751 19.7297 40.5751C20.1314 40.5751 20.4885 40.4188 20.801 40.1064C21.1135 39.7939 21.2697 39.4368 21.2697 39.0351C21.2697 38.6334 21.1135 38.2763 20.8233 37.9638C20.5109 37.6513 20.1538 37.4951 19.752 37.4951C19.3503 37.4951 18.9709 37.6513 18.6807 37.9638C18.3683 38.2763 18.2121 38.6334 18.2121 39.0351C18.1897 39.4368 18.346 39.7939 18.6584 40.1064Z" fill="white"/>
<path d="M22.3412 53.2739C22.3188 53.2739 22.3188 53.2739 22.3188 53.2739C21.8278 53.3186 21.4707 53.1177 21.2475 52.649C21.0913 52.2919 21.002 51.8679 21.0244 51.3545L21.069 42.9405C21.069 42.0924 21.136 41.5344 21.2252 41.2666C21.2475 41.1996 21.2252 41.1104 21.1806 41.0657C21.136 41.0211 21.0467 40.9988 20.9797 41.0211C19.9531 41.4005 18.9711 41.646 18.0337 41.7576C17.9221 41.7799 17.8551 41.8692 17.8775 41.9585C17.8775 42.0477 17.9667 42.137 18.056 42.137H18.0783C18.2792 42.1147 18.4577 42.2932 18.6586 42.6726C18.8818 43.0744 18.9934 43.5877 18.9934 44.168L18.9487 51.3322C18.9487 52.649 18.614 53.2739 17.9221 53.2739C17.8551 53.2739 17.7882 53.2739 17.7212 53.2516H17.6989C17.6543 53.2516 17.6096 53.2739 17.565 53.2962C17.5204 53.3409 17.498 53.3855 17.498 53.4301C17.498 53.5194 17.5427 53.5864 17.6096 53.6533C17.6766 53.698 17.7882 53.7203 17.8105 53.7203C17.8328 53.7203 17.8328 53.7203 17.8551 53.7203C19.105 53.6533 20.5334 53.6756 22.1403 53.7426C22.3858 53.7426 22.4527 53.5641 22.4751 53.5194C22.4974 53.4525 22.4751 53.3855 22.4304 53.3409C22.4527 53.2962 22.3858 53.2739 22.3412 53.2739Z" fill="white"/>
<path d="M35.5975 53.7876C35.7983 53.7876 35.8653 53.6537 35.8876 53.6091C35.9099 53.5421 35.8876 53.4752 35.8653 53.4305C35.8207 53.3859 35.776 53.3636 35.7091 53.3636C35.352 53.3859 35.0842 53.2966 34.8833 53.0958C34.5708 52.7833 34.4369 52.203 34.4369 51.3772L34.4592 45.9092C34.4592 44.7933 34.0575 43.8113 33.254 43.0301C32.3836 42.182 31.2231 41.758 29.817 41.7357H29.7947C28.3663 41.7357 27.1611 42.2044 26.246 43.0971V42.3829C26.246 42.1151 26.2684 41.8696 26.313 41.6464C26.313 41.5794 26.313 41.5125 26.246 41.4902C26.2014 41.4455 26.1344 41.4232 26.0675 41.4455C25.3979 41.6018 24.4382 41.7357 23.2107 41.8696C23.0991 41.8696 23.0322 41.9812 23.0545 42.0704C23.0545 42.182 23.1438 42.2267 23.2554 42.249C23.4562 42.2267 23.6571 42.4052 23.8356 42.7623C24.0588 43.164 24.1704 43.6551 24.1704 44.2576L24.1481 51.3549C24.1481 52.7833 23.7464 53.4082 22.9429 53.2966C22.8983 53.2966 22.8313 53.2966 22.7867 53.3413C22.742 53.3859 22.7197 53.4305 22.7197 53.4752C22.7197 53.5645 22.7644 53.6314 22.7867 53.676C22.8313 53.7207 22.9206 53.7653 23.0099 53.7653C23.0322 53.7653 23.0545 53.7653 23.0768 53.7653C24.3043 53.6984 25.755 53.7207 27.3843 53.7876C27.6298 53.7876 27.6967 53.6091 27.7191 53.5644C27.7414 53.4975 27.7191 53.4529 27.6744 53.4082C27.6298 53.3636 27.5852 53.3413 27.5405 53.3413H27.5182C27.1611 53.3859 26.871 53.2966 26.6701 53.0958C26.38 52.8056 26.2237 52.2477 26.2237 51.4219L26.246 45.7753C26.3353 45.0388 26.6924 44.4139 27.3396 43.9229C27.9422 43.4319 28.6564 43.1864 29.4822 43.1864C29.5269 43.1864 29.5715 43.1864 29.6161 43.1864C30.4196 43.231 31.0891 43.5435 31.6025 44.1237C32.1158 44.7263 32.3613 45.4629 32.3613 46.3333L32.339 51.3996C32.339 52.3369 32.2051 53.0511 31.9819 53.5421C31.9596 53.6091 31.9596 53.676 31.9819 53.7207C32.0265 53.7653 32.0712 53.81 32.1381 53.81L35.5975 53.7876Z" fill="white"/>
<path d="M42.5166 41.5793C42.4497 41.5793 42.3604 41.5793 42.2935 41.5793C41.0436 41.6016 39.9277 41.9587 39.0126 42.6282C39.035 42.0033 39.0573 41.8025 39.0573 41.7578C39.0796 41.6909 39.0573 41.6239 39.0126 41.5793C38.968 41.5346 38.9011 41.5123 38.8341 41.5346C38.1869 41.6685 37.2495 41.8025 36.0443 41.9587C36.022 41.9587 36.022 41.9587 35.9996 41.9587C35.9104 41.9587 35.8211 42.048 35.8211 42.1595C35.8211 42.2488 35.9104 42.3381 35.9996 42.3381H36.0443C36.1112 42.3381 36.3121 42.4051 36.5799 43.0969C36.8031 43.6995 36.9147 44.3468 36.9147 45.0386L36.8701 56.3764C36.8701 56.9121 36.7808 57.3807 36.6023 57.7378C36.4237 58.1396 36.1559 58.3404 35.8434 58.3404C35.7988 58.3404 35.7541 58.3404 35.6872 58.3181H35.6649C35.6202 58.3181 35.5756 58.3404 35.5533 58.3628C35.5086 58.4074 35.4863 58.452 35.4863 58.4967C35.4863 58.5636 35.5086 58.6306 35.5533 58.6752C35.6202 58.7422 35.7095 58.7645 35.8211 58.7645C37.1825 58.6975 38.6109 58.6975 40.0393 58.7645C40.2848 58.7645 40.3518 58.6306 40.3741 58.5636C40.3964 58.4967 40.3741 58.4297 40.3294 58.3851C40.2848 58.3404 40.2402 58.3181 40.1732 58.3181C39.8384 58.3404 39.5929 58.2735 39.3921 58.0949C39.1019 57.8048 38.9457 57.2245 38.9457 56.3764L38.968 52.7608C39.9054 53.475 40.9767 53.8321 42.1595 53.8321H42.2488C43.9227 53.8321 45.3288 53.2295 46.467 52.0243C47.6052 50.7968 48.2078 49.3015 48.2302 47.5829C48.2525 45.976 47.7168 44.5699 46.6232 43.3871C45.5073 42.1819 44.1236 41.5793 42.5166 41.5793ZM45.9314 47.4937C45.9314 48.8104 45.5743 49.971 44.8378 50.9753C44.1013 51.9797 43.2308 52.4707 42.2042 52.4707H42.1149C40.7981 52.4484 39.7268 51.8681 38.968 50.7745L38.9903 44.5923C39.7715 43.4317 40.8428 42.8291 42.1595 42.8291H42.2265C43.3647 42.8514 44.2798 43.3424 44.9717 44.3021C45.5966 45.2172 45.9314 46.2885 45.9314 47.4937Z" fill="white"/>
<path d="M59.3672 43.1195C58.2066 42.1598 56.8452 41.6911 55.3052 41.6688H55.2829C53.5867 41.6688 52.0914 42.2937 50.8415 43.4989C49.5917 44.7265 48.9668 46.2218 48.9668 47.9403C48.9668 49.7481 49.6364 51.2881 50.9308 52.471C52.1137 53.5646 53.5421 54.1225 55.1713 54.1225H55.2606C56.4435 54.1002 57.5594 53.8324 58.5637 53.3191C59.5681 52.8057 60.3715 52.0469 60.9741 51.0872C61.1304 50.8194 61.175 50.5962 61.0857 50.44C61.0634 50.373 60.9964 50.3507 60.9072 50.3284C60.8402 50.3284 60.7956 50.3507 60.7509 50.3953C59.5681 52.0023 57.8049 52.7611 55.5284 52.6272C54.2563 52.5602 53.2073 52.0692 52.4262 51.1542C51.645 50.2391 51.2433 49.1455 51.2656 47.8734C51.2656 47.5386 51.2879 47.2038 51.3549 46.869L61.3535 46.9137C61.4205 46.9137 61.4651 46.9137 61.5098 46.869C61.5544 46.8244 61.5767 46.7798 61.5544 46.7351C61.5544 46.7128 61.5544 46.6682 61.5321 46.6458C61.2419 45.2398 60.5054 44.0569 59.3672 43.1195ZM53.118 43.6775C53.7429 43.1642 54.4571 42.9187 55.2606 42.9187H55.2829C56.0641 42.9187 56.8006 43.1865 57.4478 43.6998C58.0281 44.1685 58.4745 44.7711 58.7646 45.5076L51.8236 45.4853C52.1137 44.7265 52.5378 44.1239 53.118 43.6775Z" fill="white"/>
<path d="M83.0916 42.606C83.0693 42.5836 83.0246 42.539 82.9354 42.539C82.6675 42.5836 82.1765 42.4944 81.5293 42.2712C80.9937 42.0926 80.4357 41.981 79.8777 41.981C78.7618 41.981 77.8021 42.3381 77.021 43.0523V42.6506C77.021 42.3828 77.0433 42.1373 77.0879 41.9141C77.0879 41.8471 77.0879 41.7802 77.0433 41.7579C76.9987 41.7132 76.954 41.6909 76.8647 41.7132C76.1952 41.8695 75.2355 42.0034 74.008 42.1373C73.8964 42.1596 73.8294 42.2489 73.8518 42.3381C73.8518 42.4274 73.941 42.5167 74.0303 42.5167H74.0526C74.2535 42.4944 74.4544 42.6729 74.6329 43.03C74.8561 43.4317 74.9677 43.9228 74.9677 44.5254L74.923 51.6226C74.923 53.0287 74.5436 53.6536 73.7402 53.5643C73.7402 53.542 73.7178 53.5197 73.6955 53.5197C73.6286 53.4974 73.5616 53.4974 73.517 53.5197C73.4277 53.5866 73.3161 53.609 73.1822 53.609C72.959 53.609 72.7582 53.542 72.5573 53.3858C72.2002 53.0733 71.9324 52.6716 71.8208 52.1806C71.7315 51.8458 71.6869 51.3548 71.6869 50.6629L71.7092 45.1949C71.7092 44.1236 71.2851 43.2755 70.437 42.6729C69.6113 42.0926 68.54 41.7802 67.2455 41.7802H67.2009C66.6875 41.7802 66.1742 41.8248 65.6609 41.9364C64.3218 42.1819 63.2058 42.6729 62.3131 43.3871C62.2238 43.4764 62.2015 43.6326 62.2685 43.7665C62.4917 44.079 62.7148 44.2798 62.9827 44.3691C63.1612 44.4138 63.3398 44.4361 63.5183 44.4361C63.9424 44.4361 64.4557 44.2352 65.0583 43.8112C65.6609 43.3871 66.1519 43.1416 66.4867 43.0747C66.7991 43.03 67.0893 42.9854 67.3794 42.9854C68.0266 42.9854 68.54 43.1416 68.9417 43.4317C69.3881 43.7665 69.5889 44.2129 69.5889 44.8378C69.5889 45.5297 69.2542 45.976 68.54 46.1992C68.0713 46.3331 67.3794 46.5117 66.4643 46.6679C65.5046 46.8465 64.8351 47.0027 64.3887 47.1143C63.5183 47.3821 62.8264 47.8285 62.3577 48.4088C61.8891 49.0114 61.6436 49.6809 61.6436 50.4174C61.6436 51.3771 62.0007 52.2029 62.7148 52.9171C63.496 53.6759 64.545 54.0777 65.8171 54.1223C66.7322 54.1446 67.5803 53.9884 68.3614 53.6536C68.8971 53.4081 69.3434 53.118 69.6559 52.7832C69.7898 53.1849 70.0353 53.5197 70.4147 53.7875C70.9057 54.1223 71.486 54.3008 72.1332 54.3008H72.1556C72.535 54.3008 72.8921 54.2339 73.2715 54.1C73.4277 54.0553 73.5616 54.0107 73.6509 53.9661C73.6955 53.9884 73.7625 54.0107 73.8294 54.0107C73.8518 54.0107 73.8741 54.0107 73.8964 54.0107C75.057 53.9437 76.5076 53.9661 78.1592 54.033C78.3378 54.0553 78.4494 53.9884 78.5163 53.8321C78.5386 53.7652 78.5386 53.6982 78.494 53.6536C78.4494 53.609 78.4047 53.5866 78.3378 53.5866C77.9807 53.6313 77.6905 53.542 77.4897 53.3411C77.1995 53.051 77.0433 52.4707 77.0433 51.6673L77.0656 45.7752C77.0656 44.4584 77.6013 43.6772 78.6502 43.3425C78.7395 43.3201 78.8065 43.3202 78.8957 43.3202C79.1189 43.3202 79.4314 43.4541 79.8777 43.7219C80.3911 44.012 80.7928 44.1683 81.1722 44.1683C81.5963 44.1683 82.0203 44.0567 82.422 43.8112C82.8238 43.5657 83.0916 43.2309 83.2032 42.8515C83.1586 42.7176 83.1362 42.6506 83.0916 42.606ZM69.5666 47.2036L69.5443 49.9934C69.5443 50.4621 69.3434 50.9754 68.964 51.4887C68.5176 52.0467 67.982 52.4261 67.3571 52.5823C67.0669 52.6716 66.7768 52.7162 66.4643 52.7162C65.7725 52.7162 65.1922 52.5154 64.7235 52.1136C64.2548 51.7119 63.987 51.2209 63.9424 50.6629C63.8754 50.105 64.0093 49.5916 64.3441 49.1453C64.7235 48.6096 65.3484 48.2525 66.1742 48.074C67.915 47.6723 69.0086 47.4044 69.5666 47.2036Z" fill="white"/>
<path d="M87.9128 53.6536C87.8682 53.6089 87.8236 53.5866 87.7789 53.5866H87.7566C87.3995 53.6312 87.1094 53.542 86.9085 53.3411C86.6184 53.051 86.4621 52.493 86.4621 51.6672L86.5291 39.3251C86.5291 38.477 86.5961 37.919 86.6853 37.6512C86.7077 37.5843 86.6853 37.495 86.6407 37.4504C86.5961 37.4057 86.5068 37.3834 86.4398 37.4057C85.4578 37.7628 84.4758 38.0083 83.4938 38.1422C83.4045 38.1646 83.3376 38.2538 83.3376 38.3431C83.3376 38.3877 83.3599 38.4547 83.4045 38.477C83.4492 38.5216 83.5161 38.5217 83.5607 38.5217C83.7616 38.4993 83.9402 38.6556 84.141 39.035C84.3642 39.4367 84.4758 39.95 84.4758 40.508L84.4312 51.6226C84.4312 52.9394 84.0964 53.5643 83.4045 53.5643C83.3376 53.5643 83.2706 53.5643 83.2037 53.542H83.1813C83.1367 53.542 83.0921 53.5643 83.0474 53.5866C83.0028 53.6312 82.9805 53.6759 82.9805 53.7205C82.9805 53.8098 83.0251 53.8767 83.0921 53.9437C83.1367 53.9883 83.226 54.0107 83.2929 54.0107C83.3152 54.0107 83.3376 54.0107 83.3376 54.0107C84.5874 53.9437 86.0381 53.966 87.6227 54.033C87.8682 54.033 87.9352 53.8767 87.9575 53.8098C87.9798 53.7652 87.9575 53.6982 87.9128 53.6536Z" fill="white"/>
<path d="M104.718 46.1546C104.741 46.0877 104.718 46.0207 104.674 45.9761C104.629 45.9314 104.562 45.9091 104.473 45.9091C103.178 45.9314 101.817 45.9314 100.433 45.8868C100.322 45.8868 100.076 45.8868 100.076 46.0877C100.076 46.1769 100.143 46.2662 100.232 46.2662C100.947 46.3778 101.281 47.0697 101.281 48.3195L101.259 51.9797C99.9645 52.6493 98.6031 52.9841 97.1971 52.9841H97.1524C95.1661 52.9841 93.5815 52.2252 92.3986 50.7522C91.3273 49.3908 90.7917 47.7615 90.7917 45.8645C90.7917 44.0567 91.3273 42.539 92.3316 41.3338C93.4699 39.9947 95.0768 39.3029 97.0631 39.2805C98.0675 39.2805 99.1388 39.5484 100.188 40.0394C101.46 40.642 102.241 41.4231 102.509 42.3828C102.531 42.4498 102.598 42.5167 102.687 42.5167H102.732C102.888 42.4944 102.888 42.4944 102.933 41.4901L103.044 38.9681C103.044 38.8788 103 38.8118 102.911 38.7895C100.924 38.2539 98.9379 37.9637 96.9962 37.9637H96.8176C94.4519 37.9861 92.4209 38.7895 90.7917 40.3518C89.1401 41.9364 88.3143 43.9005 88.292 46.1993C88.292 47.9847 88.8276 49.5693 89.8766 50.9531C91.0372 52.4931 92.711 53.542 94.8313 54.0553C95.5455 54.2339 96.3266 54.3232 97.1747 54.3232H97.2417C98.4692 54.3232 99.6744 54.1669 100.88 53.8322C102.04 53.542 102.911 53.1626 103.491 52.6939C103.535 52.6493 103.558 52.6047 103.558 52.5377C103.558 50.8638 103.558 49.3908 103.558 48.2972C103.58 47.6053 103.647 47.1143 103.759 46.8465C103.893 46.5117 104.16 46.3108 104.562 46.2216C104.629 46.2885 104.696 46.2216 104.718 46.1546Z" fill="white"/>
<path d="M110.878 41.8915H110.834C109.138 41.8915 107.642 42.4941 106.415 43.6993C105.187 44.9045 104.562 46.3998 104.54 48.096C104.54 49.8145 105.143 51.3099 106.37 52.5374C107.598 53.7649 109.071 54.3898 110.789 54.3898H110.812C112.508 54.3898 114.003 53.7872 115.231 52.582C116.458 51.3768 117.083 49.8815 117.105 48.163C117.105 46.4668 116.503 44.9714 115.275 43.7439C114.092 42.5164 112.597 41.8915 110.878 41.8915ZM114.851 48.1406C114.851 49.5244 114.449 50.7296 113.646 51.7116C112.865 52.6713 111.927 53.1623 110.834 53.1623C109.74 53.1623 108.803 52.649 108.022 51.6893C107.241 50.7073 106.839 49.4798 106.861 48.096C106.861 46.7123 107.263 45.5071 108.066 44.5251C108.847 43.5654 109.785 43.0744 110.856 43.0744H110.878C111.972 43.0744 112.909 43.5654 113.691 44.5474C114.472 45.5517 114.851 46.7569 114.851 48.1406Z" fill="white"/>
<path d="M122.551 53.7653C122.171 53.81 121.903 53.7207 121.703 53.5198C121.412 53.2297 121.256 52.6717 121.256 51.8459L121.323 39.5038C121.323 38.678 121.39 38.0978 121.479 37.8299C121.502 37.763 121.502 37.6737 121.435 37.6291C121.39 37.5844 121.301 37.5621 121.234 37.5844C120.252 37.9415 119.27 38.187 118.288 38.3209C118.199 38.3433 118.132 38.4325 118.132 38.5218C118.132 38.5665 118.154 38.6334 118.199 38.6557C118.243 38.678 118.266 38.7004 118.31 38.7004C118.333 38.7004 118.333 38.7004 118.333 38.7004C118.533 38.678 118.712 38.8343 118.913 39.2137C119.136 39.6154 119.248 40.1287 119.248 40.6867L119.203 51.8013C119.203 53.2297 118.801 53.8546 117.998 53.743H117.975C117.931 53.743 117.886 53.7653 117.864 53.7876C117.819 53.8323 117.797 53.8769 117.797 53.9216C117.797 54.0108 117.842 54.0778 117.864 54.1224C117.908 54.1671 117.998 54.2117 118.087 54.2117C118.109 54.2117 118.132 54.2117 118.154 54.2117C119.381 54.1447 120.832 54.1671 122.439 54.234C122.685 54.234 122.752 54.0555 122.774 54.0108C122.796 53.9439 122.774 53.8992 122.729 53.8546C122.662 53.7876 122.618 53.7653 122.551 53.7653Z" fill="white"/>
<path d="M133.911 38.8118C133.866 38.7672 133.822 38.7449 133.755 38.7449H133.71C133.42 38.7449 132.974 38.611 132.371 38.3655C131.702 38.0753 131.01 37.9414 130.318 37.9414C129.068 37.9414 127.997 38.3655 127.104 39.1912C126.211 40.0393 125.743 40.999 125.743 42.0257V42.8291H124.515C123.979 42.8291 123.533 43.1193 123.154 43.6996C123.109 43.7665 123.109 43.8335 123.154 43.9004C123.198 43.9674 123.287 43.9897 123.354 43.9674C123.511 43.9228 123.667 43.9227 123.823 43.9227H125.743L125.698 51.8012C125.698 53.118 125.363 53.7429 124.694 53.7429C124.627 53.7429 124.582 53.7429 124.515 53.7206H124.493C124.448 53.7206 124.381 53.7429 124.359 53.7875C124.314 53.8321 124.292 53.8991 124.314 53.9437C124.336 54.0553 124.426 54.1892 124.627 54.1892C124.649 54.1892 124.671 54.1892 124.694 54.1892C125.921 54.1223 127.372 54.1446 128.979 54.2116C129.247 54.2116 129.291 54.033 129.313 53.9884C129.336 53.9214 129.313 53.8768 129.269 53.8098C129.224 53.7652 129.18 53.7429 129.113 53.7429C128.733 53.7875 128.465 53.6982 128.265 53.4974C127.974 53.2072 127.818 52.6493 127.818 51.8235L127.863 43.9227L130.563 43.9451C131.077 43.9451 131.545 43.6549 131.992 43.0747C132.036 43.0077 132.036 42.9184 131.992 42.8515C131.947 42.7845 131.858 42.7622 131.769 42.8068C131.679 42.8515 131.523 42.8738 131.344 42.8738L127.885 42.8515V41.49C127.885 40.9321 128.041 40.4188 128.309 39.9501C128.577 39.5037 128.934 39.2582 129.403 39.1912C129.693 39.1466 130.095 39.2805 130.608 39.6153C131.188 39.9947 131.702 40.1733 132.103 40.1733C132.527 40.1733 132.907 40.084 133.264 39.8831C133.643 39.6822 133.889 39.3921 134 39.0127C133.956 38.9234 133.956 38.8788 133.911 38.8118Z" fill="white"/>
<path d="M52.9118 66.3129C51.6804 68.8262 50.6986 70.9201 49.9651 72.5956C49.2564 70.9717 48.2724 68.8778 47.0131 66.3129C46.7496 65.7827 46.4119 65.4784 46 65.3999C46.7829 65.4311 47.5497 65.4311 48.3025 65.3999C48.0498 65.4601 47.9239 65.6042 47.9239 65.8343C47.9239 65.972 47.9659 66.1312 48.0519 66.3129L50.12 70.933C50.6319 69.7812 51.3159 68.2401 52.173 66.3129C52.2579 66.1312 52.301 65.972 52.301 65.8343C52.301 65.6042 52.173 65.4601 51.9224 65.3999H51.9332C52.2891 65.4149 52.615 65.4235 52.9118 65.4235C53.2075 65.4235 53.5452 65.4149 53.9238 65.3999C53.5087 65.4784 53.171 65.7827 52.9118 66.3129Z" fill="white"/>
<path d="M56.1814 72.2781C56.1814 72.2867 56.1739 72.2899 56.1588 72.2899C55.3985 72.2598 54.6393 72.2598 53.8789 72.2899C53.8649 72.2899 53.8574 72.2867 53.8574 72.2781C54.3274 72.1856 54.5704 71.8554 54.5866 71.2887C54.6307 69.9509 54.6307 68.3033 54.5866 66.3449C54.578 65.8233 54.35 65.5158 53.9015 65.4233V65.4115C54.2768 65.4265 54.6479 65.434 55.0189 65.434C55.3899 65.434 55.762 65.4265 56.1363 65.4115C56.1449 65.4115 56.1481 65.4147 56.1481 65.4233C55.6921 65.5158 55.4609 65.8233 55.4523 66.3449C55.4125 68.3732 55.4125 70.0208 55.4523 71.2887C55.4749 71.8554 55.7179 72.1856 56.1814 72.2781Z" fill="white"/>
<path d="M62.0311 70.3215C62.0537 70.3441 62.015 70.5248 61.9171 70.8657C61.8182 71.2066 61.7386 71.4421 61.6751 71.5723C61.5633 71.839 61.4762 72.0089 61.4138 72.0842C61.3181 72.2068 61.1783 72.2681 60.9965 72.2681H56.3819C56.3668 72.2681 56.3604 72.2638 56.3604 72.2562C56.8303 72.1713 57.0734 71.8443 57.0873 71.2776C57.1325 70.0097 57.1357 68.3621 57.0992 66.3349C57.0841 65.8123 56.8529 65.5047 56.4044 65.4122V65.4004H60.5406C61.0191 65.4004 61.302 65.3928 61.3912 65.3778C61.3396 65.7639 61.3321 66.2747 61.3697 66.9124C61.3622 66.9199 61.3547 66.9296 61.3471 66.9404C61.3471 66.6221 61.1804 66.3521 60.846 66.1295C60.5653 65.9478 60.2674 65.8531 59.9566 65.8456C59.2307 65.8305 58.6005 65.8338 58.066 65.8563C57.9843 65.8563 57.9445 65.8822 57.9445 65.9338L57.923 68.3858H60.1405C60.5266 68.3858 60.8051 68.3223 60.9793 68.1922C60.9352 68.5256 60.9288 68.9966 60.9578 69.6042C60.9653 69.6193 60.9621 69.629 60.946 69.6376C60.9385 69.3698 60.8191 69.1654 60.5846 69.0203C60.4104 68.9095 60.2093 68.8503 59.9792 68.8417C59.1597 68.8342 58.4736 68.8342 57.923 68.8417L57.9326 71.2776C57.9326 71.6185 58.0853 71.8003 58.3886 71.8228C59.1382 71.8669 59.7361 71.8443 60.1846 71.7551C61.2557 71.5335 61.8719 71.0561 62.0311 70.3215Z" fill="white"/>
<path d="M68.7526 65.1944C68.6795 65.3837 68.558 65.9333 68.3923 66.8463C68.3923 66.8753 68.3837 66.8904 68.3708 66.8904C68.3923 66.1871 67.9858 65.8343 67.1524 65.8343H65.8844C65.8242 68.0433 65.821 69.8586 65.8726 71.2771C65.8952 71.8374 66.1458 72.1665 66.6243 72.2675H66.6018C65.8973 72.246 65.1402 72.246 64.3272 72.2675C64.3122 72.2751 64.2993 72.2751 64.2885 72.2675C64.752 72.174 64.9929 71.8449 65.0112 71.2771C65.0413 69.8801 65.0488 68.0658 65.0338 65.8343H63.6099C62.9872 65.8343 62.5463 66.1828 62.286 66.8796C62.2785 66.8571 62.2764 66.8312 62.2764 66.8022C62.3678 66.3451 62.4667 65.8096 62.57 65.1944C62.6786 65.3321 62.9668 65.3998 63.4378 65.3998H67.7632C68.2719 65.3998 68.601 65.3321 68.7526 65.1944Z" fill="white"/>
<path d="M75.8583 65.4002C75.4098 65.4927 75.1786 65.8583 75.1636 66.4961C75.1119 69.1492 75.1001 71.2032 75.1302 72.6572C73.4515 70.6881 71.7544 68.8459 70.037 67.1295C70.0144 68.0124 70.0176 69.3524 70.0488 71.1495C70.066 71.8098 70.2983 72.1862 70.7435 72.2787H70.7317C70.6435 72.2711 70.3521 72.2636 69.8595 72.2561C69.3175 72.2486 68.968 72.2561 68.8078 72.2787H68.7637C69.2121 72.1787 69.4401 71.813 69.4476 71.1828C69.4842 69.3255 69.481 67.2725 69.4358 65.0217C69.7627 65.3819 71.4738 67.2166 74.5689 70.5279C74.5947 69.2449 74.5904 67.9124 74.5581 66.5294C74.5495 65.8626 74.3204 65.4862 73.8677 65.4002H73.8795C73.9677 65.4088 74.2634 65.4153 74.7624 65.4228C75.3044 65.4228 75.655 65.4153 75.8142 65.4002C75.8443 65.3927 75.8583 65.3927 75.8583 65.4002Z" fill="white"/>
<path d="M80.5566 69.2703L79.3833 66.6291L78.3272 69.2703H80.5566ZM83.2538 72.2675C83.2463 72.2751 83.2204 72.2751 83.1764 72.2675C82.5967 72.246 81.9482 72.246 81.2287 72.2675H81.1739C81.3858 72.2009 81.4901 72.0406 81.4901 71.789C81.4901 71.6373 81.4481 71.4588 81.3621 71.2556L80.7513 69.7155H78.1552L77.6314 71.0394C77.5099 71.3642 77.4475 71.6255 77.4475 71.8223C77.4475 72.0675 77.5389 72.2159 77.7207 72.2675H77.7099C77.0356 72.2525 76.4119 72.2525 75.8408 72.2675H75.8301C76.257 72.174 76.6216 71.8019 76.9259 71.1491C77.4034 70.1113 78.2595 68.0895 79.4951 65.0837C80.1877 66.6215 81.161 68.7122 82.4139 71.3545C82.6774 71.8707 82.9559 72.174 83.2538 72.2675Z" fill="white"/>
<path d="M91.9997 72.2676C91.9997 72.2752 91.9922 72.2784 91.9771 72.2784C91.833 72.2633 91.4254 72.2558 90.7543 72.2558C90.08 72.2558 89.709 72.2633 89.6423 72.2784C89.6348 72.2784 89.6273 72.2752 89.6198 72.2676C89.8381 72.2311 90.0101 72.1096 90.137 71.9031C90.2639 71.6977 90.3252 71.4492 90.3252 71.161C90.3252 70.234 90.2833 69.0166 90.1973 67.5078C89.3197 69.1467 88.4658 70.7868 87.6345 72.429C87.0678 71.3567 86.1837 69.721 84.9836 67.5185C84.9836 67.6121 84.9642 68.2423 84.9276 69.4102C84.8975 70.1695 84.89 70.7964 84.9051 71.289C84.9201 71.8751 85.1309 72.201 85.5385 72.2676C85.531 72.2752 85.5202 72.2752 85.5062 72.2676C84.6566 72.2386 84.0071 72.2418 83.5586 72.2784C83.5446 72.2784 83.5371 72.2752 83.5371 72.2676C83.9856 72.201 84.2318 71.8633 84.2759 71.2557C84.4362 69.2726 84.5416 67.1873 84.5932 64.9999C85.2793 66.3011 86.3461 68.2638 87.7969 70.8889C88.7745 69.2048 89.8155 67.2594 90.9156 65.0504C90.9866 67.4185 91.0952 69.4833 91.2437 71.2449C91.2996 71.8267 91.5512 72.1665 91.9997 72.2676Z" fill="white"/>
<defs>
<linearGradient id="paint0_linear_178_12090" x1="82.4808" y1="32.1263" x2="61.0963" y2="10.9579" gradientUnits="userSpaceOnUse">
<stop stop-color="#F9C300"/>
<stop offset="0.3547" stop-color="#E1A805"/>
<stop offset="0.7554" stop-color="#CB8F09"/>
<stop offset="1" stop-color="#C3860B"/>
</linearGradient>
</defs>
</svg>
