<svg width="18" height="10" viewBox="0 0 18 10" fill="none" xmlns="http://www.w3.org/2000/svg">
<path d="M1.27634 6.65984L3.96413 9.76508C4.0287 9.83952 4.10551 9.8986 4.19015 9.93892C4.27478 9.97924 4.36556 10 4.45724 10C4.54893 10 4.63971 9.97924 4.72434 9.93892C4.80897 9.8986 4.88579 9.83952 4.95035 9.76508C5.01545 9.69125 5.06712 9.60341 5.10238 9.50664C5.13764 9.40986 5.15579 9.30606 5.15579 9.20121C5.15579 9.09637 5.13764 8.99257 5.10238 8.89579C5.06712 8.79901 5.01545 8.71117 4.95035 8.63735L2.47786 5.79418H16.6391C16.8233 5.79418 17 5.71051 17.1302 5.56157C17.2605 5.41263 17.3337 5.21063 17.3337 5C17.3337 4.78937 17.2605 4.58737 17.1302 4.43843C17 4.28949 16.8233 4.20582 16.6391 4.20582H2.43619L4.95035 1.33089C5.07348 1.18319 5.14217 0.986959 5.14217 0.782902C5.14217 0.578844 5.07348 0.382616 4.95035 0.234917C4.88579 0.16048 4.80897 0.101397 4.72434 0.0610778C4.63971 0.0207583 4.54893 0 4.45724 0C4.36556 0 4.27478 0.0207583 4.19015 0.0610778C4.10551 0.101397 4.0287 0.16048 3.96413 0.234917L1.27634 3.29251C0.886154 3.73924 0.666992 4.3448 0.666992 4.97617C0.666992 5.60755 0.886154 6.21311 1.27634 6.65984Z" fill="white"/>
</svg>
