<svg width="256" height="38" viewBox="0 0 256 38" fill="none" xmlns="http://www.w3.org/2000/svg">
<path d="M0.464844 5.66211H4.54883L10.0605 21.832L10.9238 24.5879H11.123L12.0195 21.832L17.7969 5.66211H21.8477L12.9824 30H9.09766L0.464844 5.66211ZM32.373 30.5312C30.6686 30.5312 29.1523 30.1439 27.8242 29.3691C26.4961 28.5944 25.4447 27.4987 24.6699 26.082C23.9173 24.7096 23.541 23.138 23.541 21.3672C23.541 19.7292 23.9062 18.1908 24.6367 16.752C25.3672 15.3132 26.3965 14.1842 27.7246 13.3652C29.0749 12.5241 30.5579 12.1035 32.1738 12.1035C33.9004 12.1035 35.4056 12.4909 36.6895 13.2656C37.9954 14.0625 38.9694 15.1029 39.6113 16.3867C40.2754 17.7148 40.6074 19.2422 40.6074 20.9688C40.6074 21.2786 40.5853 21.6549 40.541 22.0977H27.127C27.304 23.7799 27.9017 25.0638 28.9199 25.9492C29.9382 26.8346 31.1224 27.2773 32.4727 27.2773C33.5573 27.2773 34.5091 27.0228 35.3281 26.5137C36.1471 26.0046 36.7891 25.3294 37.2539 24.4883L40.2754 25.9492C39.4785 27.3659 38.416 28.4948 37.0879 29.3359C35.804 30.1328 34.2324 30.5312 32.373 30.5312ZM36.9551 19.3418C36.9329 18.6999 36.7337 18.069 36.3574 17.4492C36.0033 16.8516 35.472 16.3314 34.7637 15.8887C34.0775 15.4681 33.2253 15.2578 32.207 15.2578C30.9453 15.2578 29.9049 15.623 29.0859 16.3535C28.2669 17.084 27.6914 18.0801 27.3594 19.3418H36.9551ZM33.0703 0.914062H37.2207L38.7148 5.13086H35.9258L33.0703 0.914062ZM26.8945 9.08203L30.5801 4.99805H33.7676L37.4863 9.08203V9.31445H33.9336L32.3398 7.35547H32.0078L30.4141 9.31445H26.8945V9.08203ZM48.8418 5.66211H52.9258L58.4375 21.832L59.3008 24.5879H59.5L60.3965 21.832L66.1738 5.66211H70.2246L61.3594 30H57.4746L48.8418 5.66211ZM74.2754 10.1113C73.5892 10.1113 73.0026 9.86784 72.5156 9.38086C72.0286 8.89388 71.7852 8.30729 71.7852 7.62109C71.7852 6.9349 72.0286 6.35938 72.5156 5.89453C73.0469 5.40755 73.6335 5.16406 74.2754 5.16406C74.9173 5.16406 75.5039 5.40755 76.0352 5.89453C76.5221 6.35938 76.7656 6.9349 76.7656 7.62109C76.7656 8.30729 76.5221 8.89388 76.0352 9.38086C75.5482 9.86784 74.9616 10.1113 74.2754 10.1113ZM72.4492 12.668H76.1016V30H72.4492V12.668ZM80.6836 12.668H84.1367V15.0254H84.3359C84.8229 14.1621 85.5755 13.4648 86.5938 12.9336C87.6341 12.3802 88.7077 12.1035 89.8145 12.1035C91.873 12.1035 93.4557 12.7233 94.5625 13.9629C95.6471 15.1803 96.1895 16.8737 96.1895 19.043V30H92.5703V19.541C92.5703 18.1908 92.2272 17.1725 91.541 16.4863C90.877 15.8223 89.9473 15.4902 88.752 15.4902C87.8887 15.4902 87.125 15.7227 86.4609 16.1875C85.7969 16.6523 85.2767 17.2943 84.9004 18.1133C84.5241 18.9323 84.3359 19.7845 84.3359 20.6699V30H80.6836V12.668ZM100.207 12.668H103.693V14.9922H103.893C104.38 14.1953 105.121 13.5091 106.117 12.9336C107.091 12.3802 108.209 12.1035 109.471 12.1035C111.042 12.1035 112.459 12.502 113.721 13.2988C114.982 14.0957 115.979 15.1914 116.709 16.5859C117.439 17.9805 117.805 19.5632 117.805 21.334C117.805 23.1048 117.439 24.6875 116.709 26.082C115.979 27.4766 114.982 28.5723 113.721 29.3691C112.503 30.1439 111.087 30.5312 109.471 30.5312C108.209 30.5312 107.091 30.2546 106.117 29.7012C105.121 29.1478 104.38 28.4727 103.893 27.6758H103.693L103.893 30.0996V37.3379H100.207V12.668ZM111.529 26.4473C112.37 25.916 113.012 25.2298 113.455 24.3887C113.92 23.4811 114.152 22.4629 114.152 21.334C114.152 20.2051 113.92 19.1868 113.455 18.2793C113.012 17.4382 112.37 16.752 111.529 16.2207C110.755 15.7337 109.891 15.4902 108.939 15.4902C107.988 15.4902 107.124 15.7337 106.35 16.2207C105.553 16.7298 104.911 17.416 104.424 18.2793C103.937 19.1647 103.693 20.1829 103.693 21.334C103.693 22.485 103.937 23.5033 104.424 24.3887C104.911 25.252 105.553 25.9382 106.35 26.4473C107.124 26.9342 107.988 27.1777 108.939 27.1777C109.891 27.1777 110.755 26.9342 111.529 26.4473ZM129.061 30.5312C127.356 30.5312 125.84 30.1439 124.512 29.3691C123.184 28.5944 122.132 27.4987 121.357 26.082C120.605 24.7096 120.229 23.138 120.229 21.3672C120.229 19.7292 120.594 18.1908 121.324 16.752C122.055 15.3132 123.084 14.1842 124.412 13.3652C125.762 12.5241 127.245 12.1035 128.861 12.1035C130.588 12.1035 132.093 12.4909 133.377 13.2656C134.683 14.0625 135.657 15.1029 136.299 16.3867C136.963 17.7148 137.295 19.2422 137.295 20.9688C137.295 21.2786 137.273 21.6549 137.229 22.0977H123.814C123.992 23.7799 124.589 25.0638 125.607 25.9492C126.626 26.8346 127.81 27.2773 129.16 27.2773C130.245 27.2773 131.197 27.0228 132.016 26.5137C132.835 26.0046 133.477 25.3294 133.941 24.4883L136.963 25.9492C136.166 27.3659 135.104 28.4948 133.775 29.3359C132.492 30.1328 130.92 30.5312 129.061 30.5312ZM133.643 19.3418C133.62 18.6999 133.421 18.069 133.045 17.4492C132.691 16.8516 132.16 16.3314 131.451 15.8887C130.765 15.4681 129.913 15.2578 128.895 15.2578C127.633 15.2578 126.592 15.623 125.773 16.3535C124.954 17.084 124.379 18.0801 124.047 19.3418H133.643ZM142.939 29.8008C141.899 29.2695 141.135 28.5833 140.648 27.7422C140.117 26.8568 139.852 25.8496 139.852 24.7207C139.852 23.5033 140.161 22.474 140.781 21.6328C141.445 20.7474 142.309 20.0723 143.371 19.6074C144.456 19.1426 145.673 18.9102 147.023 18.9102C148.02 18.9102 148.938 19.0098 149.779 19.209C150.687 19.4303 151.351 19.6517 151.771 19.873V18.9434C151.771 17.8366 151.362 16.9401 150.543 16.2539C149.724 15.5677 148.673 15.2246 147.389 15.2246C146.459 15.2246 145.618 15.4128 144.865 15.7891C144.09 16.1654 143.46 16.7077 142.973 17.416L140.449 15.4902C141.224 14.4277 142.22 13.5977 143.438 13C144.655 12.4023 146.005 12.1035 147.488 12.1035C149.99 12.1035 151.926 12.7233 153.299 13.9629C154.671 15.2025 155.357 16.929 155.357 19.1426V30H151.771V27.8418H151.572C151.041 28.6387 150.333 29.2806 149.447 29.7676C148.495 30.2767 147.433 30.5312 146.26 30.5312C144.998 30.5312 143.891 30.2878 142.939 29.8008ZM149.414 26.8789C150.122 26.4805 150.698 25.8939 151.141 25.1191C151.561 24.3665 151.771 23.5586 151.771 22.6953C151.218 22.3411 150.598 22.0866 149.912 21.9316C149.16 21.7546 148.418 21.666 147.688 21.666C146.293 21.666 145.253 21.9538 144.566 22.5293C143.88 23.1048 143.537 23.8464 143.537 24.7539C143.537 25.5508 143.847 26.2259 144.467 26.7793C145.042 27.2884 145.861 27.543 146.924 27.543C147.809 27.543 148.639 27.3216 149.414 26.8789ZM159.408 12.668H162.861V15.2246H163.061C163.459 14.3171 164.123 13.5866 165.053 13.0332C166.027 12.4355 167.045 12.1367 168.107 12.1367C168.882 12.1367 169.579 12.2585 170.199 12.502V16.2871C169.27 15.8887 168.373 15.6895 167.51 15.6895C166.204 15.6895 165.141 16.1875 164.322 17.1836C163.481 18.2018 163.061 19.4193 163.061 20.8359V30H159.408V12.668ZM173.188 5.66211H176.84V30H173.188V5.66211Z" fill="#343A40"/>
<path d="M194.803 28.8711C192.855 27.7865 191.305 26.2591 190.154 24.2891C189.003 22.319 188.428 20.1608 188.428 17.8145C188.428 15.4681 189.003 13.3099 190.154 11.3398C191.283 9.41406 192.833 7.89779 194.803 6.79102C196.817 5.66211 198.942 5.09766 201.178 5.09766C203.037 5.09766 204.753 5.42969 206.324 6.09375C207.874 6.75781 209.202 7.67643 210.309 8.84961L207.719 11.4395C206.059 9.58008 203.878 8.65039 201.178 8.65039C199.584 8.65039 198.101 9.02669 196.729 9.7793C195.4 10.5098 194.305 11.5944 193.441 13.0332C192.622 14.4056 192.213 15.9993 192.213 17.8145C192.213 19.6517 192.622 21.2565 193.441 22.6289C194.283 24.0456 195.378 25.1302 196.729 25.8828C198.079 26.6354 199.573 27.0117 201.211 27.0117C203.779 27.0117 205.87 26.2038 207.486 24.5879C207.951 24.1452 208.383 23.5143 208.781 22.6953C209.135 21.9648 209.379 21.1126 209.512 20.1387H201.145V16.8516H212.965C213.12 17.737 213.197 18.39 213.197 18.8105C213.197 20.3822 212.954 21.8542 212.467 23.2266C211.98 24.6211 211.216 25.8496 210.176 26.9121C209.069 28.1074 207.774 29.0039 206.291 29.6016C204.786 30.2214 203.081 30.5312 201.178 30.5312C198.898 30.5312 196.773 29.9779 194.803 28.8711ZM220.17 29.3359C218.82 28.5612 217.746 27.4544 216.949 26.0156C216.174 24.599 215.787 23.0384 215.787 21.334C215.787 19.6296 216.174 18.069 216.949 16.6523C217.746 15.2135 218.82 14.1068 220.17 13.332C221.609 12.513 223.169 12.1035 224.852 12.1035C226.6 12.1035 228.161 12.513 229.533 13.332C230.906 14.151 231.979 15.2689 232.754 16.6855C233.529 18.1022 233.916 19.6517 233.916 21.334C233.916 23.0384 233.529 24.599 232.754 26.0156C231.979 27.4323 230.906 28.5391 229.533 29.3359C228.183 30.1328 226.622 30.5312 224.852 30.5312C223.125 30.5312 221.564 30.1328 220.17 29.3359ZM227.541 26.4805C228.36 26.0156 229.024 25.3294 229.533 24.4219C230.02 23.5365 230.264 22.5072 230.264 21.334C230.264 20.1608 230.02 19.1315 229.533 18.2461C229.024 17.3385 228.36 16.6523 227.541 16.1875C226.722 15.7227 225.826 15.4902 224.852 15.4902C223.878 15.4902 222.981 15.7227 222.162 16.1875C221.343 16.6523 220.679 17.3385 220.17 18.2461C219.661 19.1536 219.406 20.1829 219.406 21.334C219.406 22.485 219.661 23.5143 220.17 24.4219C220.679 25.3294 221.343 26.0156 222.162 26.4805C222.981 26.9453 223.878 27.1777 224.852 27.1777C225.826 27.1777 226.722 26.9453 227.541 26.4805ZM237.104 5.66211H240.756V30H237.104V5.66211ZM247.031 15.8555H243.877V12.668H247.031V11.2402C247.031 9.40299 247.596 7.97526 248.725 6.95703C249.876 5.91667 251.292 5.39648 252.975 5.39648C253.926 5.39648 254.823 5.5293 255.664 5.79492V9.34766C255.443 9.25911 255.055 9.13737 254.502 8.98242C254.104 8.87174 253.694 8.81641 253.273 8.81641C252.565 8.81641 251.945 9.0599 251.414 9.54688C250.905 10.0117 250.65 10.6758 250.65 11.5391V12.668H255.033V15.8555H250.65V30H247.031V15.8555Z" fill="#00AF43"/>
</svg>
